<svg width="25" height="24" viewBox="0 0 25 24" fill="none" xmlns="http://www.w3.org/2000/svg">
<path d="M12.4932 2C6.97316 2 2.49316 6.48 2.49316 12C2.49316 17.52 6.97316 22 12.4932 22C18.0132 22 22.4932 17.52 22.4932 12C22.4932 6.48 18.0132 2 12.4932 2ZM16.5232 10.2L11.8531 14.86C11.7131 15.01 11.5232 15.08 11.3232 15.08C11.1332 15.08 10.9432 15.01 10.7932 14.86L8.46317 12.53C8.17317 12.24 8.17317 11.76 8.46317 11.47C8.75317 11.18 9.23316 11.18 9.52316 11.47L11.3232 13.27L15.4632 9.14001C15.7532 8.84001 16.2332 8.84001 16.5232 9.14001C16.8132 9.43001 16.8132 9.90001 16.5232 10.2Z" fill="#121212"/>
</svg>
